HIERARCHY
ROOT Hips
{
	OFFSET -0.179506 -22.333345 2.821913
	CHANNELS 6 Xposition Yposition Zposition Zrotation Yrotation Xrotation 
	JOINT LeftUpLeg
	{
		OFFSET 6.951974 -9.140623 -0.681533
		CHANNELS 3 Zrotation Yrotation Xrotation
		JOINT LeftLeg
		{
			OFFSET 3.427654 -37.519855 -0.449580
			CHANNELS 3 Zrotation Yrotation Xrotation
			JOINT LeftFoot
			{
				OFFSET -1.359570 -39.796059 -4.369333
				CHANNELS 3 Zrotation Yrotation Xrotation
				JOINT LeftToe
				{
					OFFSET 2.635814 -5.579078 11.928840
					CHANNELS 3 Zrotation Yrotation Xrotation
					End Site
					{
						OFFSET 0.000000 0.000000 0.000000
					}
				}
			}
		}
	}
	JOINT RightUpLeg
	{
		OFFSET -6.767048 -9.052170 -0.431982
		CHANNELS 3 Zrotation Yrotation Xrotation
		JOINT RightLeg
		{
			OFFSET -3.829005 -38.256897 -0.885003
			CHANNELS 3 Zrotation Yrotation Xrotation
			JOINT RightFoot
			{
				OFFSET 1.577377 -39.841461 -4.231180
				CHANNELS 3 Zrotation Yrotation Xrotation
				JOINT RightToe
				{
					OFFSET -2.537174 -4.814398 12.334795
					CHANNELS 3 Zrotation Yrotation Xrotation
					End Site
					{
						OFFSET 0.000000 0.000000 0.000000
					}
				}
			}
		}
	}
	JOINT Spine
	{
		OFFSET -0.253288 10.896323 -2.669631
		CHANNELS 3 Zrotation Yrotation Xrotation
		JOINT Spine1
		{
			OFFSET 0.548704 13.518043 0.109247
			CHANNELS 3 Zrotation Yrotation Xrotation
			JOINT Spine2
			{
				OFFSET 0.145701 5.292222 2.542457
				CHANNELS 3 Zrotation Yrotation Xrotation
				JOINT Neck
				{
					OFFSET -0.277840 21.387037 -4.285703
					CHANNELS 3 Zrotation Yrotation Xrotation
					JOINT Head
					{
						OFFSET 0.515184 6.496960 5.134897
						CHANNELS 3 Zrotation Yrotation Xrotation
						End Site
						{
							OFFSET 0.000000 0.000000 0.000000
						}
					}
				}
				JOINT LeftShoulder
				{
					OFFSET 7.884473 12.174932 -3.408961
					CHANNELS 3 Zrotation Yrotation Xrotation
					JOINT LeftArm
					{
						OFFSET 9.097692 3.046888 -0.886815
						CHANNELS 3 Zrotation Yrotation Xrotation
						JOINT LeftForeArm
						{
							OFFSET 25.961220 -1.277207 -2.745643
							CHANNELS 3 Zrotation Yrotation Xrotation
							JOINT LeftHand
							{
								OFFSET 24.923361 0.898606 -0.117091
								CHANNELS 3 Zrotation Yrotation Xrotation
								End Site
								{
									OFFSET 0.000000 0.000000 0.000000
								}
							}
						}
					}
				}
				JOINT RightShoulder
				{
					OFFSET -8.175920 11.883285 -3.861528
					CHANNELS 3 Zrotation Yrotation Xrotation
					JOINT RightArm
					{
						OFFSET -9.601238 3.255117 -0.914307
						CHANNELS 3 Zrotation Yrotation Xrotation
						JOINT RightForeArm
						{
							OFFSET -25.374195 -1.332924 -2.140099
							CHANNELS 3 Zrotation Yrotation Xrotation
							JOINT RightHand
							{
								OFFSET -25.529810 0.777228 -0.555919
								CHANNELS 3 Zrotation Yrotation Xrotation
								End Site
								{
									OFFSET 0.000000 0.000000 0.000000
								}
							}
						}
					}
				}
			}
		}
	}
}
MOTION
Frames: 6
Frame Time: 0.033333
-38.927567 -272.373413 89.289673 -157.609495 -0.111560 94.840286 4.321403 -2.471508 16.501115 -11.406449 -29.593575 21.993464 -0.439334 16.069326 -26.287596 nan nan nan -8.102983 2.934341 -52.560003 0.652061 -10.471570 78.583808 -2.157739 -14.849191 -14.675082 nan nan nan 2.370504 -18.151563 14.771992 4.985951 -8.669826 1.163117 3.219010 -8.140420 -2.846230 -4.589642 1.863677 -10.637773 8.275518 5.844098 -20.790194 -11.335817 -22.355035 -3.811882 -19.335089 -28.651447 -2.572084 163.273900 -60.613297 -135.154344 12.509394 -21.468235 29.699168 0.475738 -4.281295 -2.398170 36.493571 -35.646200 3.350986 71.254672 62.717705 97.970490 18.563547 15.902026 -4.224526 
-39.016155 -269.261108 89.748573 -157.663176 0.268322 95.021089 4.914523 -2.662939 19.220743 -8.965263 -30.525159 18.561066 -2.222786 16.261831 -22.026075 nan nan nan -8.327610 3.042181 -53.239644 0.293475 -11.043854 74.727409 -1.709100 -14.374191 -13.735900 nan nan nan 2.987095 -19.349648 13.339961 5.278748 -9.446524 1.593844 3.164847 -8.177303 -2.246563 -5.287660 2.552041 -11.220764 7.744381 6.461744 -20.609708 -10.033409 -21.279428 -3.720437 -18.825529 -27.724502 -4.052571 163.981756 -59.537517 -135.707724 14.374460 -21.925415 28.981245 -0.469699 -4.315420 -1.558232 35.914539 -34.943611 2.685341 71.690883 61.868062 97.931727 18.297971 15.445777 -2.687197 
-39.149326 -266.185516 90.312836 -158.104933 0.870780 95.342249 5.485303 -2.645487 21.489582 -6.389078 -30.571897 15.404131 -3.770081 16.210976 -17.515517 nan nan nan -8.221306 3.491683 -53.779086 0.277646 -11.544048 70.290180 -1.258404 -14.003891 -12.268115 nan nan nan 3.800608 -20.417356 12.170435 5.530518 -9.568988 2.414509 3.293952 -7.872112 -2.943566 -5.870204 3.394160 -11.162116 7.310511 6.919364 -20.071431 -9.570331 -20.770201 -2.848936 -18.529311 -27.136986 -4.598723 163.552210 -58.613503 -136.061054 16.231728 -23.598361 26.731744 -1.156986 -4.175664 0.043061 35.607184 -34.797863 1.783010 71.979335 61.884367 97.165700 18.361882 15.892927 -1.884448 
-39.297359 -263.135620 90.855591 -158.891672 1.627151 95.373765 5.915004 -2.532959 24.128996 -3.781256 -30.365964 12.192022 -4.749976 16.345897 -13.035185 nan nan nan -7.659107 4.271055 -53.828439 0.630797 -11.598974 65.552135 -0.849735 -13.754452 -10.574524 nan nan nan 4.464900 -21.394537 11.478812 5.806210 -9.428321 3.498776 3.515828 -7.393124 -3.696855 -6.282995 4.180891 -11.173365 6.593464 7.236598 -19.758898 -8.958305 -20.051152 -2.666959 -18.899147 -26.953797 -4.500905 163.816561 -58.220369 -136.000495 18.172842 -23.438809 27.160512 -1.835525 -4.226257 1.317770 35.302401 -34.401263 1.224456 72.315541 62.156350 96.018430 18.625321 15.645113 -1.772506 
-39.454304 -260.119659 91.394814 -160.083658 2.484532 95.161647 6.134379 -2.151859 27.025385 -0.991127 -29.862803 8.954699 -5.449392 16.302007 -8.319591 nan nan nan -6.759852 5.476175 -53.432523 1.295624 -11.112163 60.491339 -0.407844 -13.423851 -8.646464 nan nan nan 5.127727 -22.274913 11.226415 5.953258 -8.994681 4.375028 3.683646 -6.815552 -4.274720 -6.812644 5.092726 -10.729340 6.148207 7.316882 -20.009762 -8.447398 -19.642955 -2.517341 -19.251876 -26.362655 -4.303473 163.982513 -57.826515 -135.906644 17.498800 -22.792771 28.263220 -2.509936 -4.109526 2.193747 35.218806 -34.237383 0.817985 72.392168 62.531753 95.136249 19.508201 15.425846 -1.975596 
-39.714737 -257.038116 91.817329 -160.571348 2.843094 94.877916 5.702758 -2.143980 29.658014 1.962788 -29.387812 5.976951 -4.943544 16.118932 -3.576442 nan nan nan -6.326602 5.848129 -52.624607 1.994963 -10.477474 55.672336 0.128246 -12.687295 -7.270498 nan nan nan 5.657576 -23.023104 10.731352 6.050247 -9.127043 5.289014 3.877181 -6.455286 -4.983092 -7.861804 5.592674 -10.114944 6.153903 7.706716 -20.249544 -8.327278 -19.287616 -1.539853 -19.097654 -26.038505 -4.846831 164.456750 -57.703743 -136.765219 15.516185 -22.043814 29.502269 -3.123289 -4.023443 4.416782 35.775930 -33.677372 -0.459030 72.959142 63.424103 94.875313 20.982902 15.372384 -1.583915 
